<?xml version="1.0" standalone="no"?>
<!DOCTYPE svg PUBLIC "-//W3C//DTD SVG 20010904//EN"
 "http://www.w3.org/TR/2001/REC-SVG-20010904/DTD/svg10.dtd">
<svg version="1.0" xmlns="http://www.w3.org/2000/svg"
 width="512.000000pt" height="512.000000pt" viewBox="0 0 512.000000 512.000000"
 preserveAspectRatio="xMidYMid meet">

<g transform="translate(0.000000,512.000000) scale(0.100000,-0.100000)"
fill="#000000" stroke="none">
<path d="M2426 4589 c-33 -11 -79 -34 -102 -50 -48 -33 -1762 -1663 -1808
-1719 -16 -19 -40 -60 -55 -90 -23 -49 -26 -67 -26 -170 0 -109 2 -118 32
-181 61 -124 185 -217 318 -239 33 -5 111 -10 173 -10 l112 0 0 -568 c0 -634
-1 -621 69 -729 45 -69 123 -134 203 -166 52 -21 66 -22 531 -25 l477 -3 0
451 c0 384 2 456 15 488 71 169 319 169 390 0 13 -32 15 -104 15 -488 l0 -451
478 3 c464 3 478 4 530 25 118 48 210 145 252 266 19 54 20 82 20 625 l0 569
153 5 c173 6 230 22 318 88 184 138 226 411 90 589 -47 62 -1771 1704 -1825
1739 -99 62 -248 80 -360 41z"/>
</g>
</svg>
