<?xml version="1.0" standalone="no"?>
<!DOCTYPE svg PUBLIC "-//W3C//DTD SVG 20010904//EN"
 "http://www.w3.org/TR/2001/REC-SVG-20010904/DTD/svg10.dtd">
<svg version="1.0" xmlns="http://www.w3.org/2000/svg"
 width="512.000000pt" height="512.000000pt" viewBox="0 0 512.000000 512.000000"
 preserveAspectRatio="xMidYMid meet">

<g transform="translate(0.000000,512.000000) scale(0.100000,-0.100000)"
fill="#000000" stroke="none">
<path d="M2195 5106 c-33 -14 -80 -64 -89 -93 -3 -10 -37 -148 -75 -307 -38
-158 -73 -292 -78 -296 -4 -5 -48 -24 -98 -43 -49 -19 -115 -46 -146 -60 l-56
-26 -254 153 c-140 83 -268 158 -286 165 -21 8 -47 10 -75 6 -40 -6 -61 -25
-289 -254 -229 -228 -248 -249 -254 -289 -4 -28 -2 -54 6 -75 7 -18 82 -146
165 -286 l153 -254 -26 -56 c-14 -31 -41 -96 -60 -146 -19 -49 -38 -94 -42
-98 -4 -4 -140 -41 -302 -83 -162 -41 -305 -83 -318 -93 -14 -9 -34 -30 -45
-45 -20 -27 -21 -40 -21 -376 0 -336 1 -349 21 -376 11 -15 31 -36 45 -45 13
-10 156 -52 318 -93 162 -42 298 -79 302 -83 4 -4 23 -48 42 -98 19 -49 46
-115 60 -146 l26 -56 -153 -254 c-83 -140 -158 -268 -165 -286 -8 -21 -10 -47
-6 -75 6 -40 25 -61 254 -289 228 -229 249 -248 289 -254 28 -4 54 -2 75 6 18
7 146 82 286 165 l254 153 56 -26 c31 -14 97 -41 146 -60 50 -19 94 -38 98
-43 5 -4 42 -140 82 -300 74 -295 85 -324 139 -364 27 -20 40 -21 376 -21 336
0 349 1 376 21 54 40 65 69 139 364 40 160 77 296 82 300 4 5 49 24 98 43 50
19 115 46 146 60 l56 26 254 -153 c140 -83 268 -158 286 -165 21 -8 47 -10 75
-6 40 6 61 25 289 254 229 228 248 249 254 289 4 28 2 54 -6 75 -7 18 -82 146
-165 286 l-153 254 26 56 c14 31 42 98 62 150 24 63 42 96 56 102 11 5 152 41
313 80 316 76 339 86 368 156 20 47 20 659 0 706 -29 70 -52 80 -368 156 -161
39 -302 75 -313 80 -14 6 -32 39 -56 102 -20 52 -48 119 -62 150 l-26 56 153
254 c83 140 158 268 165 286 8 21 10 47 6 75 -6 40 -25 61 -254 289 -228 229
-249 248 -289 254 -28 4 -54 2 -75 -6 -18 -7 -146 -82 -286 -165 l-254 -153
-56 26 c-31 14 -96 41 -146 60 -49 19 -94 38 -98 43 -5 4 -41 144 -81 309 -74
307 -84 334 -140 375 -26 20 -42 21 -364 23 -265 2 -344 0 -367 -11z m540
-1829 c276 -78 476 -282 546 -558 18 -70 18 -268 0 -338 -71 -280 -282 -491
-562 -562 -70 -18 -268 -18 -338 0 -280 71 -491 282 -562 562 -18 70 -18 268
0 338 71 281 299 507 563 560 29 6 62 13 73 15 37 9 230 -3 280 -17z"/>
</g>
</svg>
